<?xml version="1.0" encoding="UTF-8" standalone="no"?><!DOCTYPE svg PUBLIC "-//W3C//DTD SVG 1.1//EN" "http://www.w3.org/Graphics/SVG/1.1/DTD/svg11.dtd"><svg xmlns="http://www.w3.org/2000/svg" version="1.1" viewBox="0.00 0.00 150.00 155.00"><path fill="#a67a36" d="
  M 10.02 78.81
  L 80.45 147.13
  Q 81.45 148.09 80.55 149.14
  L 77.37 152.89
  Q 76.48 153.95 75.49 152.99
  L 1.09 80.80
  A 1.82 1.82 0.0 0 1 1.08 78.21
  L 53.78 25.63
  Q 54.15 25.26 54.53 25.62
  L 108.49 77.72
  Q 108.85 78.07 108.41 78.42
  C 102.34 83.36 96.84 89.09 91.18 94.50
  C 89.02 96.56 85.28 99.03 83.04 102.04
  C 81.59 103.99 82.24 105.81 83.57 107.78
  Q 87.77 113.98 92.46 119.90
  A 2.85 2.84 49.7 0 0 96.60 120.25
  Q 103.64 113.89 110.60 106.78
  C 113.53 103.78 116.75 101.54 119.63 98.68
  Q 128.68 89.71 137.80 80.83
  C 140.27 78.42 138.70 74.87 136.06 72.69
  Q 133.60 70.66 131.30 68.44
  Q 104.60 42.71 78.12 16.74
  C 75.54 14.21 72.12 11.78 69.42 9.02
  Q 68.52 8.11 69.21 7.03
  L 72.33 2.19
  Q 73.05 1.08 73.99 2.00
  Q 106.43 33.97 138.83 66.15
  C 141.83 69.13 145.71 72.01 148.99 75.22
  A 2.10 2.10 0.0 0 1 149.00 78.21
  Q 124.39 102.64 99.70 127.70
  Q 98.15 129.28 96.85 130.94
  A 0.28 0.28 0.0 0 1 96.44 130.97
  L 41.64 78.24
  A 1.15 1.14 44.8 0 1 41.63 76.60
  Q 53.57 65.00 65.45 53.19
  Q 69.20 49.47 66.04 45.73
  Q 63.06 42.20 59.70 39.06
  C 57.76 37.25 55.63 34.49 52.98 36.67
  C 44.42 43.74 36.65 51.64 28.27 58.99
  C 21.54 64.91 16.08 70.18 10.02 76.03
  A 1.94 1.94 0.0 0 0 10.02 78.81
  Z
  M 93.0572 79.7610
  A 6.09 6.09 0.0 0 0 92.2617 71.1853
  L 77.0584 58.5632
  A 6.09 6.09 0.0 0 0 68.4826 59.3588
  L 55.9628 74.4390
  A 6.09 6.09 0.0 0 0 56.7583 83.0147
  L 71.9616 95.6368
  A 6.09 6.09 0.0 0 0 80.5374 94.8412
  L 93.0572 79.7610
  Z"/></svg>