<?xml version="1.0" encoding="UTF-8" standalone="no" ?>
<!DOCTYPE svg PUBLIC "-//W3C//DTD SVG 1.1//EN" "http://www.w3.org/Graphics/SVG/1.1/DTD/svg11.dtd">
<svg xmlns="http://www.w3.org/2000/svg" xmlns:xlink="http://www.w3.org/1999/xlink" version="1.1" width="1080" height="1080" viewBox="0 0 1080 1080" xml:space="preserve">
<desc>Created with Fabric.js 5.2.4</desc>
<defs>
</defs>
<g transform="matrix(1 0 0 1 540 540)" id="88f17263-9e26-4fc2-8c1e-0fcffcdb8ea8"  >
<rect style="stroke: none; stroke-width: 1; stroke-dasharray: none; stroke-linecap: butt; stroke-dashoffset: 0; stroke-linejoin: miter; stroke-miterlimit: 4; fill: rgb(255,255,255); fill-rule: nonzero; opacity: 1; visibility: hidden;" vector-effect="non-scaling-stroke"  x="-540" y="-540" rx="0" ry="0" width="1080" height="1080" />
</g>
<g transform="matrix(1 0 0 1 540 540)" id="4ea1de6a-d8e9-40f6-9821-624680b24987"  >
</g>
<g transform="matrix(2.11 0 0 2.11 540 540)"  >
<path style="stroke: none; stroke-width: 1; stroke-dasharray: none; stroke-linecap: butt; stroke-dashoffset: 0; stroke-linejoin: miter; stroke-miterlimit: 4; fill: rgb(0,0,0); fill-rule: nonzero; opacity: 1;"  transform=" translate(-256, -287.95)" d="M 233.4 406.6 C 245.9 419.1 266.2 419.1 278.7 406.6 L 470.7 214.60000000000002 C 483.2 202.10000000000002 483.2 181.8 470.7 169.3 C 458.2 156.8 437.9 156.8 425.4 169.3 L 256 338.7 L 86.6 169.4 C 74.1 156.9 53.8 156.9 41.3 169.4 C 28.799999999999997 181.9 28.799999999999997 202.2 41.3 214.7 L 233.3 406.7 z" stroke-linecap="round" />
</g>
<g transform="matrix(2.11 0 0 2.11 540 540)"  >
<path style="stroke: none; stroke-width: 1; stroke-dasharray: none; stroke-linecap: butt; stroke-dashoffset: 0; stroke-linejoin: miter; stroke-miterlimit: 4; fill: rgb(0,0,0); fill-rule: nonzero; opacity: 1;"  transform=" translate(-256, -287.95)" d="M 233.4 406.6 C 245.9 419.1 266.2 419.1 278.7 406.6 L 470.7 214.60000000000002 C 483.2 202.10000000000002 483.2 181.8 470.7 169.3 C 458.2 156.8 437.9 156.8 425.4 169.3 L 256 338.7 L 86.6 169.4 C 74.1 156.9 53.8 156.9 41.3 169.4 C 28.799999999999997 181.9 28.799999999999997 202.2 41.3 214.7 L 233.3 406.7 z" stroke-linecap="round" />
</g>
</svg>